<svg width="575" height="575" viewBox="0 0 575 575" fill="none" xmlns="http://www.w3.org/2000/svg">
<g clip-path="url(#clip0_1_2)">
<path d="M504.818 143.493C501.691 136.101 497.219 129.466 491.525 123.772C485.831 118.078 479.196 113.606 471.805 110.48C464.144 107.239 456.015 105.596 447.645 105.596C439.274 105.596 431.146 107.239 423.485 110.48C416.093 113.606 409.458 118.078 403.764 123.772C398.07 129.466 393.598 136.101 390.472 143.493C387.231 151.154 385.588 159.282 385.588 167.653V204.662C383.844 203.718 382.05 202.855 380.208 202.076C372.547 198.836 364.419 197.193 356.048 197.193C347.677 197.193 339.549 198.836 331.888 202.076C324.496 205.203 317.861 209.675 312.168 215.369C311.511 216.025 310.873 216.695 310.25 217.376C309.626 216.695 308.988 216.025 308.332 215.369C302.638 209.675 296.003 205.203 288.611 202.076C280.95 198.836 272.822 197.193 264.451 197.193C256.081 197.193 247.952 198.836 240.291 202.076C238.45 202.855 236.655 203.718 234.911 204.662V76.0561C234.911 67.6857 233.268 59.5572 230.028 51.8961C226.901 44.5045 222.429 37.8697 216.735 32.1757C211.041 26.4818 204.406 22.0095 197.015 18.8832C189.354 15.6429 181.225 14 172.855 14C164.485 14 156.356 15.6429 148.695 18.8833C141.303 22.0097 134.668 26.4819 128.974 32.1759C123.28 37.8698 118.808 44.5046 115.682 51.8962C112.441 59.5573 110.798 67.6859 110.798 76.0563V275.569C108.117 276.297 105.48 277.207 102.896 278.3C95.5048 281.426 88.87 285.899 83.1761 291.593C77.4821 297.286 73.0097 303.921 69.8833 311.313C66.643 318.974 65 327.103 65 335.473V337.626C65 381.166 77.5865 423.335 101.398 459.576C104.521 464.329 109.709 466.908 115.001 466.908C118.064 466.908 121.162 466.044 123.914 464.236C131.418 459.305 133.504 449.225 128.573 441.721C108.255 410.798 97.5162 374.802 97.5162 337.626V335.473C97.5162 319.184 110.768 305.933 127.056 305.933H264.451C280.74 305.933 293.992 319.184 293.992 335.473C293.992 351.762 280.74 365.013 264.451 365.013H172.855C163.876 365.013 156.597 372.292 156.597 381.271C156.597 390.25 163.876 397.529 172.855 397.529H264.451C272.822 397.529 280.95 395.886 288.611 392.646C296.003 389.52 302.638 385.047 308.332 379.353C308.988 378.697 309.626 378.027 310.25 377.346C310.873 378.027 311.511 378.697 312.168 379.353C317.861 385.047 324.497 389.52 331.888 392.646C339.549 395.886 347.678 397.529 356.048 397.529C364.419 397.529 372.547 395.886 380.208 392.646C387.6 389.52 394.235 385.047 399.929 379.353C405.623 373.66 410.095 367.025 413.221 359.633C416.462 351.972 418.105 343.843 418.105 335.473V167.653C418.105 151.364 431.356 138.113 447.645 138.113C463.934 138.113 477.185 151.364 477.185 167.653V337.626C477.185 374.803 466.446 410.798 446.128 441.721C441.197 449.225 443.283 459.305 450.788 464.236C453.539 466.044 456.636 466.908 459.7 466.908C464.991 466.908 470.18 464.328 473.303 459.576C497.115 423.336 509.701 381.166 509.701 337.626V167.653C509.701 159.282 508.058 151.154 504.818 143.493ZM143.315 76.0561C143.315 59.7677 156.567 46.5161 172.855 46.5161C189.143 46.5161 202.395 59.7677 202.395 76.0561V273.416H143.315L143.315 76.0561ZM288.612 278.3C280.951 275.059 272.822 273.416 264.452 273.416H234.911V259.249C234.911 242.961 248.163 229.709 264.452 229.709C280.74 229.709 293.992 242.961 293.992 259.249V280.885C292.247 279.941 290.453 279.079 288.612 278.3ZM385.589 335.473C385.589 351.761 372.337 365.013 356.048 365.013C339.76 365.013 326.508 351.761 326.508 335.473V259.249C326.508 242.961 339.76 229.709 356.049 229.709C372.337 229.709 385.589 242.961 385.589 259.249L385.589 335.473Z" fill="#FFFAFF"/>
<path d="M473.013 493.828L439.869 472.236C439.694 472.116 439.516 472.001 439.336 471.889L406.173 450.284C398.649 445.382 388.577 447.508 383.676 455.032C378.775 462.555 380.9 472.628 388.424 477.529L403.806 487.55C399.838 490.637 395.753 493.568 391.567 496.323C381.547 502.918 370.862 508.577 359.81 513.146C336.829 522.644 312.451 527.46 287.351 527.46C262.251 527.46 237.873 522.644 214.892 513.146C203.84 508.577 193.155 502.918 183.135 496.323C178.949 493.568 174.864 490.637 170.896 487.549L186.278 477.529C193.801 472.628 195.927 462.555 191.026 455.032C186.124 447.508 176.052 445.383 168.529 450.284L135.349 471.899C135.184 472.003 135.02 472.109 134.858 472.219L101.688 493.828C94.1647 498.729 92.0391 508.801 96.9401 516.324C100.057 521.109 105.264 523.71 110.578 523.71C113.62 523.71 116.698 522.857 119.437 521.072L142.318 506.166C149.59 512.427 157.27 518.227 165.259 523.485C176.998 531.21 189.518 537.842 202.472 543.196C229.411 554.33 257.968 559.976 287.351 559.976C316.734 559.976 345.291 554.33 372.23 543.196C385.184 537.842 397.704 531.21 409.443 523.485C417.432 518.227 425.112 512.428 432.384 506.167L455.265 521.072C458.004 522.857 461.081 523.71 464.124 523.71C469.437 523.71 474.645 521.108 477.761 516.324C482.662 508.801 480.537 498.729 473.013 493.828L473.013 493.828Z" fill="#FFBB00"/>
<path d="M255.372 477.406C262.828 469.951 262.828 457.863 255.372 450.407C247.916 442.951 235.828 442.951 228.373 450.407C220.917 457.863 220.917 469.951 228.373 477.406C235.828 484.862 247.916 484.862 255.372 477.406Z" fill="#FFBB00"/>
<path d="M337.218 482.485C347.48 480.062 353.835 469.779 351.412 459.517C348.99 449.256 338.707 442.901 328.445 445.323C318.183 447.746 311.828 458.029 314.251 468.29C316.673 478.552 326.956 484.907 337.218 482.485Z" fill="#FFBB00"/>
</g>
<defs>
<clipPath id="clip0_1_2">
<rect width="444.701" height="546" fill="white" transform="translate(65 14)"/>
</clipPath>
</defs>
</svg>
